<svg xmlns="http://www.w3.org/2000/svg" viewBox="0 0 469 517"><g fill="none" fill-rule="evenodd" transform="translate(0 7)"><path fill="#FCF8F2" fill-rule="nonzero" d="M400.997 324.555h39.084c5.738 0 10.929 2.322 14.701 6.093a20.727 20.727 0 0 1 6.083 14.691c0 11.477-9.307 20.784-20.784 20.784h-17.824c5.738 0 10.929 2.322 14.701 6.093a20.727 20.727 0 0 1 6.083 14.691c0 11.477-9.307 20.784-20.784 20.784h-19.59c5.738 0 10.929 2.322 14.701 6.093a20.727 20.727 0 0 1 6.083 14.691c0 11.477-9.307 20.784-20.784 20.784H66.443c-11.477 0-20.784-9.307-20.784-20.784 0-5.738 2.332-10.94 6.083-14.691a20.71 20.71 0 0 1 14.701-6.093H46.855c-11.477 0-20.784-9.307-20.784-20.784 0-5.738 2.332-10.94 6.083-14.691a20.71 20.71 0 0 1 14.701-6.093H29.032c-11.477 0-20.784-9.307-20.784-20.784 0-5.738 2.332-10.94 6.083-14.691a20.71 20.71 0 0 1 14.701-6.093h44.154"/><path fill="#4D362E" fill-rule="nonzero" d="M329.378 75.166c-44.955-21.463-76.04-4.562-76.04-4.562-9.794-9.794-25.184-13.434-43.049-11.284-53.38 6.418-128.801 64.593-142.478 164.874-18.25 133.82 64.34 199.498 64.34 199.498l54.1-.385 150.437-1.075c142.599-142.591 59.605-315.14-7.31-347.066z"/><path fill="#2F2421" fill-rule="nonzero" d="M160.773 212.939c27.131 44.904 29.23 136.243 25.478 210.366l-54.1.385s-82.589-65.678-64.34-199.498C81.488 123.911 156.909 65.736 210.289 59.318c.001.001-99.5 70.9-49.516 153.621z"/><path fill="#33A9DC" fill-rule="nonzero" d="M340.023 501.981v-46.496c0-36.935-11.984-70.342-31.308-94.411l-148.308.01c-19.344 24.069-31.318 57.476-31.318 94.401v46.496"/><path fill="#1572B6" fill-rule="nonzero" d="M308.716 361.077c-.001-.001-148.309.008-148.309.008-19.344 24.069-31.318 57.476-31.318 94.401v46.496h33.455v-46.497c.001-36.925 11.975-70.331 31.319-94.4l114.853-.008z"/><g fill="#F5D3B4" fill-rule="nonzero"><path d="M286.258 371.142v42.613c0 12.886-10.453 23.339-23.339 23.339h-56.726c-12.886 0-23.339-10.453-23.339-23.339v-42.613h103.404z"/><path d="M357.441 226.14v48.746c0 67.858-55.022 104.255-122.88 104.255-67.868 0-122.89-36.398-122.89-104.255v-38.081c13.89-11.761 31.318-19.061 49.101-23.866 27.253-7.381 55.357-8.881 72.795-11.558 39.541-6.083 47.145-42.582 47.145-42.582s1.399-5.86 1.612-15.147c.001 0 21.748 61.673 75.117 82.488z"/></g><g fill="#EBBEA2" fill-rule="nonzero"><path d="M286.258 371.142v22.771c-15.715 5.303-33.234 7.999-51.697 7.999-18.473 0-35.992-2.697-51.707-7.999v-22.771h103.404z"/><path d="M234.562 379.142c-67.868 0-122.89-36.398-122.89-104.255v-38.081c13.89-11.761 31.318-19.061 49.101-23.866-8.243 48.016-13.546 145.711 73.789 166.202z"/></g><circle cx="179.057" cy="265.085" r="18" fill="#000" fill-rule="nonzero"/><circle cx="293.557" cy="265.085" r="18" fill="#000" fill-rule="nonzero"/><g fill="#FCB097" fill-rule="nonzero" transform="translate(138.557 292.585)"><ellipse cx="174.827" cy="10.679" rx="16.729" ry="10.139"/><ellipse cx="17.172" cy="10.679" rx="16.729" ry="10.139"/></g><path fill="#960000" fill-rule="nonzero" d="M253.577 315.072a24.258 24.258 0 0 1-17.266 7.152 24.258 24.258 0 0 1-17.266-7.152 7.602 7.602 0 0 0-12.98 5.377c0 2.016.8 3.95 2.227 5.376 7.484 7.484 17.435 11.607 28.02 11.607s20.535-4.121 28.019-11.607a7.602 7.602 0 0 0-5.377-12.98 7.603 7.603 0 0 0-5.377 2.227z"/><path fill="#000" fill-rule="nonzero" d="M468.469 345.339c0-7.582-2.951-14.708-8.311-20.067-5.365-5.365-12.496-8.321-20.078-8.321h-28.519c6.494-20.368 10.171-41.329 10.896-62.635 1.706-50.102-13.232-101.535-40.982-141.114a7.605 7.605 0 0 0-12.452 8.732c25.896 36.932 39.832 84.995 38.236 131.866-.945 27.765-7.192 55.01-18.567 80.978-11.136 25.424-27.241 49.671-47.951 72.235-4.716-15.983-11.786-30.835-20.99-43.895a109.531 109.531 0 0 0 6.412-4.691c25.436-20.111 38.882-48.998 38.882-83.539v-38.237c.789.217 1.568.448 2.369.65.607.153 1.23.23 1.857.231a7.609 7.609 0 0 0 7.37-5.755 7.603 7.603 0 0 0-5.525-9.226c-52.704-13.225-77.381-70.653-81.119-80.116.219-17.141-3.44-43.805-23.436-68.498 11.532-2.853 32.728-4.707 59.541 8.09 7.049 3.365 14.293 8.45 21.529 15.115a7.605 7.605 0 0 0 10.302-11.188c-8.354-7.693-16.859-13.632-25.282-17.652-5.438-2.595-34.923-16.016-90.651-16.016-55.729 0-52.043 3.77-80.198 15.794-46.38 25.626-91.173 79.188-101.522 155.087-4.498 32.984-3.426 64.357 3.162 93.787h-34.41c-7.582 0-14.712 2.955-20.077 8.321-5.359 5.359-8.311 12.486-8.311 20.067 0 13.284 9.17 24.465 21.514 27.547-2.408 4.226-3.69 9.024-3.69 14.022 0 13.841 9.957 25.4 23.085 27.891-2.283 4.141-3.497 8.816-3.497 13.677 0 15.653 12.735 28.388 28.388 28.388h55.043v45.117a7.605 7.605 0 0 0 15.208 0v-46.499c0-31.692 9.139-61.484 25.842-84.64a133.24 133.24 0 0 0 12.716 5.603v37.306c0 17.062 13.881 30.944 30.944 30.944h56.725c17.062 0 30.944-13.881 30.944-30.944V376.45a132.84 132.84 0 0 0 12.726-5.608c16.696 23.171 25.831 52.964 25.831 84.643v46.496a7.605 7.605 0 0 0 15.208 0v-45.117h55.04c15.653 0 28.388-12.735 28.388-28.388 0-4.861-1.214-9.535-3.497-13.677 13.128-2.49 23.087-14.049 23.087-27.891 0-4.997-1.282-9.796-3.69-14.022 12.34-3.081 21.51-14.263 21.51-27.547zM349.838 231.216v43.67c0 29.724-11.448 54.486-33.106 71.609-20.425 16.149-49.607 25.042-82.17 25.042-32.568 0-61.753-8.894-82.18-25.042-21.658-17.122-33.107-41.885-33.107-71.609v-34.461c27.335-21.247 68.427-25.951 97.769-29.305 6.443-.736 12.528-1.433 17.683-2.225 32.515-5.001 45.901-27.948 50.855-40.439 11.135 19.981 31.699 48.253 64.256 62.76zm-222.057 177.84c-5.02-5.289-11.618-13-18.51-23.172a7.604 7.604 0 0 0-12.59 8.53c11.244 16.593 21.871 27.266 27.197 32.146a172.546 172.546 0 0 0-1.853 15.096H66.443c-7.267 0-13.18-5.913-13.18-13.18 0-3.519 1.37-6.827 3.856-9.314a13.103 13.103 0 0 1 9.324-3.866 7.605 7.605 0 0 0 0-15.208H46.855c-7.267 0-13.18-5.913-13.18-13.18 0-3.52 1.37-6.827 3.856-9.314a13.103 13.103 0 0 1 9.324-3.866 7.605 7.605 0 0 0 0-15.208H29.032c-7.267 0-13.18-5.913-13.18-13.18 0-3.519 1.37-6.827 3.856-9.314a13.103 13.103 0 0 1 9.324-3.866h38.365a228.787 228.787 0 0 0 13.623 35.128 7.602 7.602 0 0 0 10.163 3.513 7.605 7.605 0 0 0 3.513-10.164c-19.597-40.301-26.107-85.863-19.349-135.418 5.262-38.592 20.66-74.067 44.528-102.592 20.326-24.291 45.757-42.465 71.608-51.174 24.337-8.199 45.45-6.507 56.48 4.522 35.439 35.439 25.775 79.237 25.352 81.064-.112.523-6.968 31.604-40.902 36.826-4.862.748-10.806 1.428-17.098 2.146-19.807 2.264-44.457 5.082-67.977 13.045-28.743 9.732-48.459 24.647-60.274 45.597a7.605 7.605 0 0 0 13.247 7.471c1.159-2.054 2.427-3.999 3.755-5.881v18.642c0 34.541 13.446 63.429 38.883 83.539a109 109 0 0 0 6.42 4.696c-9.599 13.612-16.879 29.172-21.588 45.936zm150.873 4.698c0 8.677-7.059 15.736-15.736 15.736h-56.725c-8.677 0-15.736-7.059-15.736-15.736v-32.466c13.744 3.586 28.602 5.458 44.103 5.458 15.497 0 30.352-1.871 44.093-5.457v32.465h.001zm161.427-55.234h-17.824a7.605 7.605 0 0 0 0 15.208c3.519 0 6.83 1.373 9.324 3.867a13.083 13.083 0 0 1 3.856 9.313c0 7.267-5.913 13.18-13.18 13.18h-19.59a7.605 7.605 0 0 0 0 15.208c3.519 0 6.83 1.373 9.324 3.866a13.083 13.083 0 0 1 3.856 9.314c0 7.267-5.913 13.18-13.18 13.18h-55.578a172.44 172.44 0 0 0-2.17-16.959c27.633-28.317 48.211-59.536 61.217-92.538h33.944c3.519 0 6.83 1.373 9.324 3.866a13.083 13.083 0 0 1 3.856 9.314c.002 7.268-5.91 13.181-13.179 13.181z"/><ellipse cx="239.557" cy="35.68" stroke="#FFD71C" stroke-width="15" rx="87.876" ry="35.095"/></g></svg>
