<svg width="505" height="506" xmlns="http://www.w3.org/2000/svg"><g transform="translate(0 .438)" fill="none"><circle fill="#33A9DC" cx="252.5" cy="252.5" r="252.5"/><path d="M408.45 357.985c0 1.594-.17 3.157-.502 4.688-3.376 15.776-23.557 27.905-47.935 27.905-12.927 0-24.674-3.407-33.365-8.96-7.291-4.67-12.424-10.844-14.294-17.784a22.281 22.281 0 0 1-.282-10.517c2.949-13.811 18.781-24.837 39.043-27.365a72.254 72.254 0 0 1 8.898-.546c23.708 0 43.449 11.458 47.616 26.6a22.27 22.27 0 0 1 .82 5.98z" fill="#A24223"/><path d="M350.674 341.986c-2.485 12.714-9.64 25.499-20.15 36.008a81.176 81.176 0 0 1-3.874 3.627c-9.282-5.943-15.074-14.331-15.074-23.633 0-15.949 17.038-29.223 39.536-32.034.788 5.022.658 10.436-.438 16.032z" fill="#8B381E"/><path d="M360.013 390.578c-26.751 0-48.434-14.592-48.434-32.589 0-1.93.248-3.816.731-5.649 3.98 15.303 23.822 26.933 47.703 26.933 23.88 0 43.723-11.63 47.702-26.933.483 1.833.731 3.718.731 5.65 0 17.996-21.682 32.588-48.433 32.588z" fill="#8B381E"/><path d="M408.45 357.985c0 1.594-.17 3.157-.502 4.688a4.71 4.71 0 0 1-2.19-.822c-1.017-.704-23.739-16.052-42.733-.245-8.09 6.733-16.861 8.967-24.938 8.967-11.069 0-20.826-4.192-25.734-6.74a22.272 22.272 0 0 1-.282-10.516c.71.068 1.412.3 2.052.715.056.038 6.457 4.072 15.08 6.024 10.943 2.473 20.293.559 27.798-5.685 10.241-8.516 22.91-11.226 36.646-7.85 5.962 1.468 10.888 3.79 13.981 5.484a22.24 22.24 0 0 1 .822 5.98z" fill="#8B381E"/><path d="M280.037 382.645H177.932c-9.582 0-12.798-12.825-4.35-17.339 2.1-1.122 4.246-2.185 6.424-3.19a117.483 117.483 0 0 1 19.954-7.031 117.886 117.886 0 0 1 29.02-3.607c7.378 0 14.599.678 21.598 1.976a117.547 117.547 0 0 1 27.384 8.663 122.41 122.41 0 0 1 6.425 3.19c8.448 4.513 5.232 17.338-4.35 17.338z" fill="#D8AD8F"/><path d="M280.037 382.645h-25.668c-4.572-7.88-6.007-17.893-3.92-28.565.039-.209.085-.417.13-.626a117.547 117.547 0 0 1 27.384 8.662 122.411 122.411 0 0 1 6.425 3.19c8.447 4.514 5.231 17.339-4.351 17.339z" fill="#C19476"/><path d="M277.964 362.118c-15.115 6.2-31.657 9.624-48.98 9.624-17.321 0-33.864-3.424-48.979-9.624 6.365-2.91 13.04-5.28 19.959-7.035a117.872 117.872 0 0 1 29.021-3.604c17.47 0 34.06 3.814 48.979 10.639z" fill="#C19476"/><path d="M369.325 192.615c-3.182 0-6.302.312-9.313.913-22.11 4.336-38.833 23.866-38.833 47.233 0 20.621 13.025 38.247 31.284 45.095a47.839 47.839 0 0 0 16.862 3.05c26.54 0 48.145-21.597 48.145-48.145 0-26.549-21.604-48.146-48.145-48.146zm0 72.815a24.57 24.57 0 0 1-10.95-2.566c-8.128-4.04-13.72-12.432-13.72-22.103 0-10.31 6.356-19.155 15.357-22.837a24.524 24.524 0 0 1 9.312-1.825c13.602 0 24.662 11.06 24.662 24.662 0 13.601-11.059 24.669-24.661 24.669z" fill="#D8AD8F"/><path d="M344.656 240.76c0 9.672 5.592 18.064 13.719 22.104a128.457 128.457 0 0 1-5.912 22.992c-18.258-6.848-31.283-24.475-31.283-45.096 0-23.367 16.722-42.896 38.833-47.233v24.397c-9.001 3.681-15.357 12.526-15.357 22.837z" fill="#C19476"/><path d="M346.754 177.196v65.08c0 20.977-5.485 40.677-15.107 57.741-16.934 30.051-46.679 51.916-81.831 58.185a118.514 118.514 0 0 1-20.834 1.84c-65.041 0-117.767-52.726-117.767-117.767v-65.08c0-6.222 5.049-11.258 11.265-11.258h213.01c6.215 0 11.264 5.036 11.264 11.259z" fill="#F9E8D4"/><path d="M331.647 300.018c-16.934 30.051-46.679 51.916-81.831 58.184.15-1.356.365-2.733.632-4.122 2.485-12.713 9.648-25.499 20.156-36.007 13.216-13.215 30.24-21.108 45.55-21.108 5.643 0 10.862 1.037 15.493 3.053z" fill="#D8AD8F"/><path d="M346.754 177.196v65.08c0 65.04-52.725 117.766-117.772 117.766-15.218 0-29.758-2.883-43.104-8.134a117.86 117.86 0 0 0 31.362 4.22c65.048 0 117.773-52.724 117.773-117.766v-65.08c0-2.811-1.024-5.375-2.727-7.344h3.203c6.216 0 11.265 5.035 11.265 11.258z" fill="#D8AD8F"/><path fill="#FB4239" d="M111.215 202.636h235.539v38.127H111.215z"/><path d="M346.754 202.636v38.127h-11.768c.02-.796.026-1.598.026-2.4v-35.727h11.742z" fill="#E21717"/><path d="M323.604 371.075c-16.817 16.817-38.962 22.653-52.61 14.79a22.404 22.404 0 0 1-4.68-3.583 22.197 22.197 0 0 1-2.956-3.658c-8.78-13.542-3.082-36.39 14.163-53.634 16.767-16.767 38.83-22.615 52.484-14.86a22.34 22.34 0 0 1 7.763 7.312c8.778 13.542 3.087 36.389-14.164 53.633z" fill="#A24223"/><path d="M323.607 371.076c-18.916 18.916-44.566 23.93-57.291 11.204a22.092 22.092 0 0 1-3.478-4.51c13.634 8.006 35.89 2.199 52.775-14.687 16.887-16.886 22.694-39.141 14.687-52.776a22.108 22.108 0 0 1 4.51 3.478c12.726 12.726 7.712 38.376-11.203 57.291z" fill="#8B381E"/><path d="M337.768 317.442a4.607 4.607 0 0 1-2.127.979c-1.218.22-28.138 5.428-30.39 30.039-2.272 24.843-25.138 34.513-34.257 37.405a22.404 22.404 0 0 1-4.68-3.583 22.197 22.197 0 0 1-2.956-3.658 4.665 4.665 0 0 1 1.957-.941c.07-.013 7.448-1.682 14.923-6.401 9.488-5.993 14.746-13.956 15.637-23.676 1.217-13.266 8.258-24.147 20.362-31.464 5.259-3.181 10.385-5.026 13.768-6.011a22.34 22.34 0 0 1 7.763 7.31z" fill="#8B381E"/><path d="M225.673 158.555a4.69 4.69 0 0 1-3.328-1.379c-7.643-7.644-7.643-20.082 0-27.725l5.966-5.966c3.974-3.974 3.974-10.44 0-14.415l-5.966-5.965c-7.643-7.644-7.643-20.083 0-27.726a4.707 4.707 0 0 1 6.656 6.655c-3.974 3.975-3.974 10.44 0 14.415l5.966 5.966c7.644 7.644 7.644 20.082 0 27.725L229 136.107c-3.974 3.973-3.974 10.44 0 14.414a4.706 4.706 0 0 1-3.328 8.034zm27.515 0a4.69 4.69 0 0 1-3.328-1.379c-7.643-7.644-7.643-20.082 0-27.725l5.967-5.966c3.974-3.974 3.974-10.44 0-14.415a4.706 4.706 0 1 1 6.656-6.655c7.643 7.644 7.643 20.082 0 27.725l-5.967 5.967c-3.974 3.974-3.974 10.44 0 14.414a4.706 4.706 0 0 1-3.328 8.034z" fill="#D8AD8F"/><path d="M198.815 158.555a4.69 4.69 0 0 1-3.328-1.379c-7.644-7.644-7.644-20.082 0-27.725l5.966-5.966c3.974-3.974 3.974-10.44 0-14.415a4.706 4.706 0 1 1 6.655-6.655c7.644 7.644 7.644 20.082 0 27.725l-5.966 5.967c-3.974 3.974-3.974 10.44 0 14.414a4.706 4.706 0 0 1-3.327 8.034z" fill="#D8AD8F"/></g></svg>
