<svg width="512" height="512" xmlns="http://www.w3.org/2000/svg"><g fill="none"><circle fill="#33A9DC" cx="256" cy="256" r="256"/><path d="M344.038 223.954c0-50.284-40.76-91.044-91.044-91.044s-91.044 40.76-91.044 91.044c0 49.833 20.291 64.41 40.504 92.698 13.322 18.637 13.322 39.685 13.322 39.685h74.435s-.026-21.048 13.322-39.685c20.235-28.273 40.505-42.865 40.505-92.698z" fill="#FDF35A"/><path d="M252.995 132.91v223.427h37.217s-.026-21.048 13.322-39.685c20.239-28.268 40.504-42.865 40.504-92.698 0-50.284-40.765-91.044-91.043-91.044z" fill="#F7BF00"/><path d="M278.513 356.337v-27.684c0-7.962-6.456-14.418-14.418-14.418h-22.2c-7.962 0-14.418 6.456-14.418 14.418v27.679h51.036v.005z" fill="#F7BF00"/><path fill="#335872" d="M215.757 356.352h74.409v47.063h-74.409z"/><path d="M215.777 403.4v3.825c0 7.962 6.456 14.418 14.418 14.418h45.573c7.962 0 14.418-6.456 14.418-14.418V403.4h-74.409z" fill="#D03E00"/><path d="M252.995 439.849c10.056 0 18.212-8.156 18.212-18.212h-36.424c0 10.061 8.151 18.212 18.212 18.212z" fill="#335872"/><path d="M264.095 314.235h-11.11v42.097h25.528v-27.679c0-7.962-6.457-14.418-14.418-14.418z" fill="#FDF35A"/><path d="M262.026 356.347s-.159-59.484-.159-79.283c0-6.461 2.217-13.204 4.362-19.727 2.478-7.521 5.033-15.304 2.376-18.98-1.961-2.708-7.363-4.147-15.606-4.147-8.228 0-13.629 1.454-15.626 4.198-2.739 3.779-.164 11.674 2.33 19.313 2.099 6.426 4.265 13.061 4.265 19.338v79.273h-7.798v-79.268c0-5.033-1.971-11.075-3.881-16.922-3.098-9.492-6.298-19.318-1.229-26.312 3.676-5.059 10.644-7.419 21.939-7.419 11.32 0 18.289 2.34 21.924 7.373 4.997 6.902 1.807 16.604-1.28 25.989-1.951 5.939-3.973 12.078-3.973 17.29 0 19.794.159 79.263.159 79.263l-7.803.021z" fill="#D03E00"/><path fill="#153040" d="M252.979 356.352h37.228v47.063h-37.228zm.016 65.285v18.212c10.056 0 18.212-8.156 18.212-18.212h-18.212z"/><path d="M252.995 403.4v18.243h22.774c7.962 0 14.418-6.456 14.418-14.418V403.4h-37.192z" fill="#9C2E00"/><path d="M150.62 257.546a4.812 4.812 0 0 0-5.555-3.917l-33.838 5.852a4.803 4.803 0 0 0-3.912 5.555 4.812 4.812 0 0 0 4.731 3.988l.824-.072 33.838-5.852a4.809 4.809 0 0 0 3.912-5.554zM193.864 92.82a4.806 4.806 0 0 0-6.38-2.345 4.8 4.8 0 0 0-2.34 6.38l14.408 31.165a4.808 4.808 0 0 0 4.362 2.79c.671 0 1.362-.143 2.012-.445a4.8 4.8 0 0 0 2.34-6.38L193.864 92.82zm-31.637 70.784a4.779 4.779 0 0 0 3.098 1.137 4.784 4.784 0 0 0 3.676-1.705 4.806 4.806 0 0 0-.568-6.774l-26.23-22.159a4.805 4.805 0 0 0-6.774.568 4.806 4.806 0 0 0 .568 6.774l26.23 22.159zm-51.927 39.03l33.137 8.996 1.265.169a4.815 4.815 0 0 0 4.634-3.548 4.801 4.801 0 0 0-3.379-5.893l-33.137-8.996a4.806 4.806 0 0 0-5.893 3.379 4.791 4.791 0 0 0 3.373 5.893zm55.629 97.838l-28.196 19.604a4.806 4.806 0 1 0 5.489 7.89l28.196-19.604a4.806 4.806 0 1 0-5.489-7.89zm87.066-227.978c-2.396.21-4.449 2.191-4.46 4.716l-.113 34.34c-.01 2.575 2.022 4.644 4.572 4.777 2.55-.128 4.582-2.202 4.572-4.777l-.113-34.34c-.009-2.525-2.067-4.506-4.458-4.716zm87.669 92.247a4.754 4.754 0 0 0 3.098-1.137l26.23-22.154a4.81 4.81 0 0 0 .568-6.774 4.804 4.804 0 0 0-6.774-.568l-26.23 22.159a4.81 4.81 0 0 0-.568 6.774 4.792 4.792 0 0 0 3.676 1.7zm15.99 43.51a4.81 4.81 0 0 0 4.634 3.548l1.265-.169 33.137-8.996a4.805 4.805 0 0 0 3.379-5.898c-.701-2.56-3.343-4.076-5.893-3.379l-33.137 8.996a4.806 4.806 0 0 0-3.385 5.898zm38.108 51.231l-33.838-5.852a4.807 4.807 0 0 0-1.643 9.472l33.838 5.852.824.072a4.806 4.806 0 0 0 .819-9.544zm-54.707 40.99c-2.186-1.51-5.176-.983-6.692 1.203a4.8 4.8 0 0 0 1.203 6.687l28.196 19.604a4.808 4.808 0 0 0 6.692-1.203 4.802 4.802 0 0 0-1.203-6.687l-28.196-19.604zm-21.56-209.996a4.808 4.808 0 0 0-6.38 2.345l-14.408 31.171a4.807 4.807 0 0 0 4.352 6.825 4.796 4.796 0 0 0 4.362-2.79l14.408-31.165a4.794 4.794 0 0 0-2.334-6.386z" fill="#F7BF00"/></g></svg>
