<svg width="510" height="509" xmlns="http://www.w3.org/2000/svg"><g fill="none"><g transform="translate(.25)"><circle fill="#84DBFF" cx="254.8" cy="254.4" r="254"/><circle fill="#33A9DC" cx="254.8" cy="254.4" r="254"/></g><g fill="#F9B54C"><path d="M153.45 345.6c0-2 0-3.6.4-5.6.8-4.8 3.2-9.2 6-13.2.4-.4.8-1.2 1.2-1.6.4-.4 1.2-.4 1.6-.4h10.4c.8 0 1.2.8 2 1.2 2 1.6 3.2 3.6 4 6 1.6 4.8 0 10-1.6 14.8-.8 2-1.2 4.4-2 6.4-.4 1.2-.8 2.4-1.6 3.6-1.6 2-4 3.2-6 4-3.2 1.2-6.4 2.4-9.2.8-2-1.2-2.8-3.2-3.6-5.2-1.2-3.2-1.6-7.2-1.6-10.8zm243.2-66.4c-9.6 10.4-16 14.8-25.6 25.2-3.6 4-8 8.4-13.6 8.4-.8 0-2-.4-2.8-.4-3.6-1.2-6.4-4-8.8-6.8-10-10.8-19.6-22.8-31.2-32-12.4-10-27.6-16.4-39.2-27.6-4.8-4.8-12.8-4.4-19.2-5.2-5.2-.8-10 1.6-14 4.8-4 3.2-7.2 6.8-11.6 10-6.4 4.8-14.8 6.8-22.8 6.4-2.4-.4-5.2-.8-7.2-2.4-2-1.6-3.2-4.4-2-6.8.4-1.2 1.6-2.4 2.8-3.2 7.6-8 7.2-22.4 16.8-28 4-2.4 8.4-2.8 12.8-4.4 4-1.6 7.6-4.4 11.2-6.4 3.6-2 7.6-3.2 11.6-4 6.8-1.6 14-1.6 21.2-1.6 7.2 0 14.4.4 21.2 2.4 5.2 1.6 10 4 15.6 5.2 8 1.6 16-.4 24-1.6 1.6-.4 3.2-.4 4.4.4.8.4 1.6 1.2 2 1.6 2.4 2.4 5.2 4.8 7.6 7.2 18.4 17.2 37.2 35.6 46.8 58.8z"/><path d="M396.65 279.2c-9.6 10.4-16 14.8-25.6 25.2-3.6 4-8 8.4-13.6 8.4-.8 0-2-.4-2.8-.4-3.6-1.2-6.4-4-8.8-6.8-10-10.8-19.6-22.8-31.2-32-12.4-10-27.6-16.4-39.2-27.6-4.8-4.8-12.8-4.4-19.2-5.2-5.2-.8-10 1.6-14 4.8-4 3.2-7.2 6.8-11.6 10-6.4 4.8-14.8 6.8-22.8 6.4-.8 0-1.6 0-2.4-.4-1.6-.4-3.6-.8-4.8-2-2-1.6-3.2-4.4-2-6.8.4-1.2 1.6-2.4 2.8-3.2 3.6-3.6 5.2-8.8 7.2-13.6 2-5.6 4.4-11.2 9.6-14.4 4-2.4 8.8-2.8 12.8-4.4 4-1.6 7.6-4.4 11.2-6.4 3.6-2 7.6-3.2 11.6-4 6.8-1.6 14-1.6 21.2-1.6 7.2 0 14.4.4 21.2 2.4 5.2 1.6 10 4.4 15.6 5.2 8 1.6 16-.4 24-1.6 1.6 0 3.2-.4 4.4.4.8.4 1.6 1.2 2 1.6 2.4 2.4 5.2 4.8 7.6 7.2 18.4 17.2 37.2 35.6 46.8 58.8z"/><path d="M396.65 279.2c-9.6 10.4-16 14.8-25.6 25.2-3.6 4-8 8.4-13.6 8.4-.8 0-2-.4-2.8-.4-3.6-1.2-6.4-4-8.8-6.8-10-10.8-19.6-22.8-31.2-32-12.4-10-27.6-16.4-39.2-27.6-4.8-4.8-12.8-4.4-19.2-5.2-5.2-.8-10 1.6-14 4.8-4 3.2-7.2 6.8-11.6 10-6.4 4.8-14.8 6.8-22.8 6.4-.8 0-1.6 0-2.4-.4-1.6-.4-3.6-.8-4.8-2-2-1.6-3.2-4.4-2-6.8v-.4c.4-1.2 1.6-2 2.4-2.8 3.6-3.6 5.2-8.8 7.2-13.6 0-.4 0-.4.4-.8 2-5.2 4.4-10.4 9.2-13.6 4-2.4 8.8-2.8 12.8-4.4 4-1.6 7.6-4.4 11.2-6.4 3.6-2 7.6-3.2 11.6-4 6.8-1.6 14-1.6 21.2-1.6 7.2 0 14.4.4 21.2 2.4 5.2 1.6 10 4.4 15.6 5.2 8 1.6 16-.4 24-1.6 1.6 0 3.2-.4 4.4.4.8.4 1.6 1.2 2 1.6 2.4 2.4 5.2 4.8 7.6 7.2 18.8 17.2 37.6 35.6 47.2 58.8z"/></g><g fill="#FFD05B"><path d="M355.85 320.8c-.4 4.8-3.2 9.2-7.6 11.2-4.4 2-9.6 2-13.6-.8 3.2 4.8 0 11.6-5.2 14-5.2 2.4-11.2 2-16.8 1.2 2 1.2 2.4 4.4 1.2 6.4s-3.6 3.2-6 4c-5.2 1.6-11.2 1.6-16.4.4 2.4 2 .8 6.4-1.6 8.4-6.8 6.4-16.8 8.4-26 6.4-9.2-1.6-17.6-6.4-25.6-11.2-8-4.8-16-9.6-25.2-12.4-8.8-2.4-18.4-2.4-27.6-4.8-14-3.6-25.6-13.2-36.4-22.4-2-1.6-4-3.6-5.2-6-.8-2.8 0-5.6.8-8 5.6-18.8 12-37.2 20-55.2 1.6-4 3.6-8 6.4-11.6 4.8-6.4 13.2-10.4 13.6-18 .4-2.8 1.2-5.6 2.8-8 .4-.8 1.2-1.2 1.6-2 .8-.4 1.6-.8 2.4-.8l26.4-7.2c6.8-2 13.6-3.6 20.8-3.2 5.2.4 10.4 2.4 14.8 5.2-4 .8-8 2-11.6 4-4 2-7.2 4.8-11.2 6.4-4.4 1.6-8.8 2-12.8 4.4-9.6 5.6-9.2 20-16.8 28-.8 1.2-2 2-2.8 3.2-1.2 2.4 0 5.2 2 6.8 2 1.6 4.8 2 7.2 2.4 8 .8 16-1.6 22.8-6.4 4-2.8 7.6-6.8 11.6-10s8.8-5.6 14-4.8c6.8.8 14.4.4 19.2 5.2 11.6 11.2 26.4 18 39.2 27.6 11.6 9.2 21.2 21.2 31.2 32 2.4 2.8 5.6 5.6 8.8 6.8 1.6 2.8 2 5.6 1.6 8.8z"/><path d="M355.85 320.8c-.4 4.8-3.2 9.2-7.6 11.2-3.6 1.6-7.6 2-11.2.4l-2.4-1.2c.8.8 1.2 2 1.2 3.2.4 4-2.4 8.8-6.4 10.8-4.4 2-9.6 2-14.4 1.6-.8 0-1.6 0-2.4-.4 1.2.8 2 2.4 2 4 0 .8-.4 2-.8 2.8-1.2 2-3.6 3.2-6 4-5.2 1.6-10.8 1.6-16 .4h-.4c1.2.8 1.6 2.4 1.2 3.6-.4 1.6-1.2 3.6-2.8 4.8-6.8 6.4-16.8 8.4-26 6.4-9.2-1.6-17.6-6.4-25.6-11.2-8-4.8-16-10-25.2-12.4-8.8-2.4-18.4-2.4-27.6-4.8-14-3.6-25.6-13.2-36.4-22.4-2-1.6-4-3.6-5.2-6-.8-2.4 0-5.2.8-8 5.6-18.8 12-37.2 20-55.2 1.6-4 3.6-8 6.4-11.6 4.8-6.4 13.2-10.4 13.6-18 .4-2.8 1.2-5.6 2.8-8 .4-.8 1.2-1.2 1.6-2 .8-.4 1.6-.8 2.4-.8l26.4-7.2c6.8-2 13.6-3.6 20.8-3.2 5.2.4 10.4 2.4 14.8 5.2-4 .8-8 2-11.6 4-3.6 2-7.2 4.8-11.2 6.4-4.4 1.6-8.8 2-12.8 4.4-9.6 5.6-9.2 20-16.8 28-.8 1.2-2 2-2.8 3.2-1.2 2.4 0 5.2 2 6.8 2 1.6 4.8 2 7.2 2.4 8 .8 16-1.6 22.8-6.4 4-2.8 7.6-6.8 11.6-10s8.8-5.6 14-4.8c6.8.8 14.4.4 19.2 5.2 11.6 11.2 26.4 17.6 39.2 27.6 11.6 9.2 21.2 21.2 31.2 32 2.4 2.8 5.6 5.6 8.8 6.8 1.6 2.4 2 5.2 1.6 8.4z"/></g><g fill="#F9B54C"><path d="M195.05 359.6c0-2.8 0-5.2.8-7.6.4-1.2 1.2-2 2-2.8 1.2-1.6 3.2-3.2 4.8-4.4 4.4-2.4 9.6-2.4 14.8-2.4.8 0 1.6 0 2.4.4 1.6.8 2.8 2.8 4.4 3.6.4.4 1.2.8 1.6 1.2 1.2.8 1.6 2.4 1.6 3.6.4 6-2.4 12-7.2 15.6-4.8 3.6-11.6 4.4-17.2 2-1.6-.4-2.8-1.2-4.4-2-.8-.4-2-1.2-2.8-2-.4-1.2-.8-3.2-.8-5.2zm63.6 11.6c-1.6.8-3.2.8-4.8 1.6-.8.4-1.6.8-2 1.2-2 .8-4 .8-6 .8-2.8 0-5.6.4-8-.4-2.8-.4-5.2-1.6-7.2-3.6-1.2-1.2-2-3.2-2.4-4.8-.4-.8-.4-1.6-.4-2.4 0-2 .8-3.6 2-5.2 2.4-2.8 5.6-4.4 8.8-6 2.4-1.2 4.4-2.4 6.8-3.6 2-1.2 4.4-2.4 6.8-3.2 3.6-1.2 7.6-.8 10.8.8 3.2 1.6 5.6 5.2 5.6 8.8 0 3.2-1.6 6.4-3.2 9.2-2.4 2.8-4 5.6-6.8 6.8z"/><path d="M275.05 378.8c-.4.8-1.2 2-1.6 2.8-1.6 1.6-3.2 2-5.2 2.8-3.2.8-6.4 1.6-9.6 1.6-3.2-.4-6.4-1.6-8.4-4-.8-.8-1.2-1.6-1.2-2.8 0-2 1.2-3.6 2.8-4.8 4-3.2 9.2-4 12.8-7.2.8-.8 1.6-1.6 2.8-2.4.8-.4 1.6-.4 2.4-.4 1.6-.4 3.6-.4 5.2.4s2.4 2 3.2 3.2c.4 3.2-1.2 7.6-3.2 10.8zm59.6-47.6c.8.8 1.2 2 1.2 3.2-1.2-.4-2-1.6-3.2-2.8-6.4-7.2-16-10.4-23.2-16.4-2.4-2-4.8-4.4-7.2-6-2-1.6-4.4-2.8-6.8-4.4-3.2-2-6.4-4.8-9.6-7.2-2.8-2.4-6-5.2-6-8.8v-.4c0-.4.4-.4.8-.4 2.8-.4 5.2.8 7.6 2.4 2 1.6 3.6 4 5.6 6 5.2 5.6 11.2 10 17.6 14.4 5.6 4 11.2 7.6 16.8 11.6 2.4 1.6 4.4 3.2 6.4 5.2 1.2 1.6 2.4 3.2 2.8 4.8-1.2-.4-2-.8-2.8-1.2z"/></g><path d="M122.65 293.6c1.6-16.8 9.6-32.8 17.6-48 4.8-9.6 10-19.2 14.8-29.2 1.2-2.4 2.4-4.8 4-6.4 4.8-5.6 13.6-7.2 20.4-3.6 1.2.8 2.8 1.6 3.6 3.2.8 1.2.8 2.8.8 4 .4 4.8.8 9.6 0 14-.8 4-2.4 7.6-4.4 11.2l-32.4 66c-.8 1.6-1.6 3.2-2.8 4.8-4.4 5.2-13.2 5.6-18 .8-4-4.4-4.4-10.8-3.6-16.8z" fill="#E6E9EE"/><path d="M165.45 210.8c-10.4 35.6-23.6 70.8-40.4 104-.8 1.6-2 3.6-4 4.4-1.2.4-2.8 0-4 0-8.4-.8-16 5.2-24.8 6.8-11.2 1.6-22-4.8-31.6-10.8-18.8-12-38.4-22.8-58.8-32.8-.8-9.2-1.6-18.4-1.6-27.6 0-46.4 12.4-89.6 34-127.2 8 4.4 15.6 9.2 23.6 13.6 6.4 3.6 12.8 7.6 19.2 11.2 10 6 20.4 12 29.6 20 6.8 5.6 13.2 12.4 22 14 3.6.4 7.2 0 10.8.4 7.6.8 14.4 6 20.4 10.8 2 1.6 4.4 3.6 5.2 6.4 1.6 2 .8 4.4.4 6.8z" fill="#324A5E"/><path d="M355.85 198.8c.8-1.2 1.6-2.4 2.8-2.8.8-.4 1.6 0 2.4 0 5.2 1.6 8 7.6 11.2 12 3.2 4.4 8 7.6 12 11.2 10.8 10 18 24 24.4 37.2 3.6 7.2 7.2 14.8 11.2 22 4.4 9.2 9.2 18.4 10.4 28.4-6.4-1.2-13.6 2-19.2-.8-2.4-1.2-4-3.2-5.6-5.2-7.6-9.6-14-20.4-19.6-31.2-4.8-9.6-9.2-20-17.6-26.8-3.2-2.8-7.2-4.8-9.6-7.6-1.6-2-2.8-4.4-4.4-6.4-4.4-7.6-10.4-14.4-17.2-20.4 7.2 0 14.8-3.6 18.8-9.6z" fill="#E6E9EE"/><path d="M509.05 254.4c0 6.4-.4 12.4-.8 18.4-20.4 12.8-39.6 28-58.4 43.6-3.6 3.2-8 6.4-12.8 4.8-2-.8-3.6-2-4.8-3.6-6.8-7.6-9.6-18.4-14-27.6-4-8.4-9.6-16-14.8-23.6l-47.2-65.2c-1.2-1.6-2.4-3.6-2-5.6.4-1.6 2-2.4 3.2-3.6 6.4-4.4 13.2-9.2 19.6-13.6 6.8-4.8 13.2-9.6 20.4-13.2 6.8-3.6 13.6-6.4 20.8-9.2 19.2-8.4 37.6-19.2 56-29.6 22 37.6 34.8 81.2 34.8 128z" fill="#324A5E"/><path d="M314.65 350.4c-1.2-.8-2.8-1.6-4-2.4-4-2.4-8-5.2-12-8-1.2-.8-2.8-1.6-4-2.8-6-4-12-7.6-18-11.6-2.8-2-5.6-3.6-7.6-6.4 4.8-.8 9.6.8 13.6 3.6 4 2.4 7.6 5.6 11.2 8.8 3.6 2.8 7.2 5.2 10.8 7.2 2.8 1.6 5.6 2.8 8 4.8 1.2.8 2 2 3.2 3.2-.8 0-1.6 0-2.4-.4.8.8 1.2 2.4 1.2 4zm-22.4 10.8l-12-4.8c-2-.8-4-1.6-6-2.8-1.6-1.2-3.2-2.4-4.8-4-7.2-6-15.6-12-24.8-11.6-1.2 0-2.4 0-3.2-.8-.8-.8 0-2.4.8-3.2.8-.8 2.4-.8 3.6-.8 3.6 0 7.2.8 10.8 2.4 4.8 2 9.2 5.6 14 8 2 .8 4.4 1.6 6.4 2.8 5.6 2.4 10.4 6 14.8 10.4h-.4c.8 1.6 1.2 2.8.8 4.4z" fill="#F9B54C"/><path d="M216.25 243.6c-.4 1.6-1.2 2.8-2 4-2.4 3.2-5.2 5.6-8.4 7.2-1.2.4-2 .8-3.2.8-1.6 0-2.8-1.2-3.2-2.4 0-.4-.4-.8-.4-1.2.4-1.2 1.6-2 2.4-2.8 3.6-3.6 5.2-8.8 7.2-13.6 0-.4 0-.4.4-.8s1.2-.4 1.6-.4c.8 0 1.2.8 1.6 1.2 2.4 2.4 4.4 5.2 4 8zm34.8 109.6c-.4-1.6.4-3.6 2-4.8 2-1.6 4.4-2.8 6.8-2.8 2.4 0 5.2 1.6 6 4 .8 2.4 0 5.6-1.2 8-.4.8-.8 1.2-1.2 1.6-.4.4-1.2.4-2 .4-1.6 0-3.2.4-4.8 0-1.6-.4-3.2-1.6-3.6-3.2m24.4 11.2c-.8-2-2.4-3.2-4-3.6-3.2-.8-6.8 2-7.6 5.6-.4 1.6 0 3.6 1.6 4.4.4 0 .8.4 1.2.4l8-.8c1.2-2 1.2-4 .8-6z" fill="#FFFEFF"/></g></svg>
