<svg width="505" height="506" xmlns="http://www.w3.org/2000/svg"><g transform="translate(-.5 .438)" fill="none"><circle fill="#33A9DC" cx="253" cy="253" r="252.5"/><path d="M134.21 182.698c-59.785 0-53.156 72.703-52.883 125.388.01 1.99 1.053 3.783 2.757 4.811 6.625 3.994 24.82 13.33 50.126 13.33 25.308 0 43.502-9.336 50.126-13.33 1.704-1.028 2.747-2.821 2.757-4.81.273-52.686 6.902-125.389-52.883-125.389z" fill="#694B4B"/><path d="M130.359 182.848c-55.603 3.118-49.298 73.725-49.032 125.238.01 1.99 1.053 3.784 2.757 4.811 6.625 3.994 24.82 13.33 50.126 13.33l15.11-105.758" fill="#5A4146"/><path d="M134.21 182.698c-33.994 0-36.354 41.076-36.354 41.076 19.594-3.305 31.634 4.957 51.463-3.305L134.21 326.228c25.308 0 43.502-9.337 50.126-13.331 1.704-1.028 2.747-2.821 2.757-4.81.273-52.686 6.902-125.389-52.883-125.389z" fill="#694B4B"/><path d="M187.093 308.086c.235-45.271 5.122-105.28-31.43-121.284-.637 3.311-1.792 12.557 1.21 18.558 7.554 15.109 15.109 15.109 22.662 26.44 7.554 41.548-14.434 85.646-21.737 91.65 12.94-3.078 22.215-7.947 26.538-10.553 1.704-1.027 2.747-2.821 2.757-4.81z" fill="#785550"/><path d="M191.448 319.545l-33.703-14.043a7.554 7.554 0 0 1-4.649-6.973v-9.128h-37.77v9.128c0 3.05-1.835 5.8-4.65 6.973l-33.703 14.043A11.333 11.333 0 0 0 70 330.005v15.11a7.554 7.554 0 0 0 7.554 7.553h113.313a7.554 7.554 0 0 0 7.554-7.554v-15.109c0-4.574-2.75-8.7-6.973-10.46z" fill="#E6AF78"/><path d="M191.448 319.545l-32.587-13.578-24.65 10.639-24.651-10.639-32.587 13.579A11.33 11.33 0 0 0 70 330.006v15.108a7.554 7.554 0 0 0 7.554 7.554h113.313a7.554 7.554 0 0 0 7.554-7.554v-15.109c0-4.574-2.75-8.7-6.973-10.46z" fill="#EFF2FA"/><path d="M153.096 289.401h-37.77v9.128c0 3.05-1.835 5.8-4.65 6.973l-5.263 2.194c40.282 10.271 47.683-18.295 47.683-18.295z" fill="#D29B6E"/><g fill="#E4EAF6"><path d="M88.41 334.157l-15.161-12.06c-2.031 2.078-3.249 4.887-3.249 7.908v15.11a7.554 7.554 0 0 0 7.554 7.553h15.11v-9.662a11.343 11.343 0 0 0-4.254-8.85zm110.011 10.957v-15.11c0-2.997-1.197-5.787-3.2-7.86l-15.21 12.012a11.33 11.33 0 0 0-4.253 8.848v9.662h15.11a7.552 7.552 0 0 0 7.553-7.552zm-63.644 0h-1.133a3.21 3.21 0 0 1-3.21-3.21v-25.29h7.554v25.288a3.21 3.21 0 0 1-3.21 3.212z"/><path d="M134.21 316.607l-21.618-16.213a3.021 3.021 0 0 0-4.327.74l-4.271 6.408 13.254 18.555a3.022 3.022 0 0 0 4.346.603l12.616-10.093z"/><path d="M134.21 316.607l21.618-16.213a3.021 3.021 0 0 1 4.327.74l4.272 6.408-13.254 18.555a3.022 3.022 0 0 1-4.347.603l-12.616-10.093z"/></g><path d="M153.096 216.693c-18.886 18.885-55.948 3.776-55.948 33.992l2.345 22.258a15.11 15.11 0 0 0 7.708 11.84l21.506 11.947a11.331 11.331 0 0 0 11.006 0l21.505-11.947a15.107 15.107 0 0 0 7.709-11.84l2.707-26.435c.193-1.879.234-3.77.17-5.654-1.411-9.615-14.931-16.608-18.708-24.161z" fill="#F0C087"/><path d="M97.148 250.685l2.345 22.258a15.11 15.11 0 0 0 7.708 11.84l21.506 11.947c2.375 1.32 5.099 1.66 7.691 1.149 0 0-10.842-3.286-17.296-20.755-1.977-5.35-4.721-33.68-2.36-37.141 4.667-6.843 30.689-7.555 38.377-20.25-.38-.47-.73-.943-1.05-1.416-.026-.037-.057-.076-.084-.115a14.365 14.365 0 0 1-.89-1.511c-18.885 18.887-55.947 3.778-55.947 33.994z" fill="#E6AF78"/><path d="M161.783 345.114h-9.82a6.421 6.421 0 0 0-6.421 6.42v1.134h22.662v-1.134a6.42 6.42 0 0 0-6.42-6.42z" fill="#E4EAF6"/><path fill="#E6AF78" d="M392.267 301.983V281.24h-53.345v20.744l26.672 23.71z"/><path d="M433.508 311.687l-36.672-8.628a5.886 5.886 0 0 1-1.539-.62l-29.703 17.327-28.544-18.164a5.904 5.904 0 0 1-2.697 1.458l-36.671 8.628a11.854 11.854 0 0 0-9.14 11.54v23.21a5.928 5.928 0 0 0 5.928 5.928h142.25a5.928 5.928 0 0 0 5.928-5.928v-23.21a11.858 11.858 0 0 0-9.141-11.54z" fill="#EFF2FA"/><path d="M338.922 281.239v21.888c33.6 12.105 53.345-18.192 53.345-18.192v-3.696h-53.345z" fill="#D29B6E"/><path d="M327.068 213.076l2.583 56.817a17.782 17.782 0 0 0 7.095 13.417l12.253 9.19a17.78 17.78 0 0 0 10.669 3.557h11.854c3.847 0 7.591-1.249 10.668-3.557l12.254-9.19a17.781 17.781 0 0 0 7.094-13.417l2.583-56.817h-77.053z" fill="#F0C087"/><path d="M356.704 224.93c11.854 0 29.636-2.963 33.853-11.854h-63.489l2.583 56.817a17.782 17.782 0 0 0 7.094 13.417l12.253 9.19a17.78 17.78 0 0 0 10.669 3.557h5.927c-5.927 0-17.781-11.855-17.781-26.673V233.82c0-2.963 2.964-8.89 8.891-8.89z" fill="#E6AF78"/><path d="M420.89 333.13l19.204-17.25a11.834 11.834 0 0 1 2.553 7.346v23.21a5.928 5.928 0 0 1-5.927 5.928h-20.745v-8.21c0-4.205 1.786-8.213 4.915-11.023z" fill="#E4EAF6"/><path fill="#5B5D6E" d="M373.004 352.364h-14.819l1.853-26.672h11.113z"/><path d="M373.004 319.765h-14.819v1.712a7.178 7.178 0 0 0 7.179 7.178h.46a7.178 7.178 0 0 0 7.178-7.178v-1.712h.002z" fill="#515262"/><path d="M338.505 295.386l27.089 24.38s-7.586 3.829-16.949 11.548c-1.93 1.592-4.852.947-5.888-1.331l-12.726-27.998 4.026-6.04a2.963 2.963 0 0 1 4.448-.559zm54.178 0l-27.089 24.38s7.586 3.829 16.949 11.548c1.93 1.592 4.852.947 5.888-1.331l12.726-27.998-4.026-6.04a2.963 2.963 0 0 0-4.448-.559z" fill="#E4EAF6"/><path d="M383.56 193.442l2.78 19.634c12.682 2.537 14.51 22.44 14.773 28.124a5.849 5.849 0 0 0 .937 2.896l4.84 7.506s-1.657-12.41 5.926-20.744c0 0 2.603-49.27-29.255-37.416z" fill="#785550"/><path d="M409.861 250.335l-3.347 13.387a3.563 3.563 0 0 1-6.992-.422l-1.711-13.692c-.458-3.662 2.397-6.895 6.087-6.895h.012c3.991-.001 6.92 3.75 5.951 7.622z" fill="#F0C087"/><path d="M329.908 188.133l4.383 2.994c-19.818 14.633-16.115 39.73-16.115 39.73 5.928 5.928 5.928 20.745 5.928 20.745l5.927-5.927s-2.287-17.122 8.891-23.708c10.373-6.113 19.449-2.963 28.71-2.963 24.82 0 31.766-9.354 30.562-20.745-.623-5.894-9.635-18.171-32.599-17.781-9.269.157-26.673 2.963-35.687 7.655z" fill="#694B4B"/><path d="M328.179 216.41s-3.149-12.41 6.112-25.283c-19.818 14.633-16.115 39.73-16.115 39.73 5.928 5.928 5.928 20.745 5.928 20.745l5.927-5.927s-2.287-17.122 8.89-23.708c10.373-6.113 19.449-2.963 28.71-2.963 4.036 0 7.554-.271 10.687-.734-19.114.641-30.381-13.837-50.139-1.86z" fill="#5A4146"/><path d="M321.327 250.335l3.347 13.387a3.563 3.563 0 0 0 6.993-.422l1.71-13.692c.459-3.662-2.397-6.895-6.087-6.895h-.012c-3.99-.001-6.92 3.75-5.952 7.622z" fill="#E6AF78"/><path d="M401.157 346.437H386.34a5.928 5.928 0 0 0-5.928 5.928h26.672a5.926 5.926 0 0 0-5.926-5.928z" fill="#E4EAF6"/><path d="M256.436 108.364c-101.635 0-90.365 123.595-89.9 213.16.017 3.381 1.788 6.432 4.686 8.178 11.262 6.789 42.192 22.662 85.214 22.662 43.023 0 73.953-15.873 85.215-22.662 2.897-1.747 4.67-4.797 4.687-8.179.464-89.565 11.734-213.16-89.902-213.16z" fill="#694B4B"/><path d="M249.887 108.618c-94.523 5.3-83.806 125.333-83.352 212.904.018 3.383 1.79 6.433 4.687 8.18 11.262 6.788 42.192 22.661 85.214 22.661l25.685-179.79" fill="#5A4146"/><path d="M256.436 108.364c-57.789 0-61.802 69.829-61.802 69.829 33.309-5.618 53.776 8.428 87.487-5.618l-25.685 179.79c43.023 0 73.953-15.873 85.215-22.662 2.897-1.747 4.67-4.797 4.687-8.18.464-89.565 11.734-213.16-89.902-213.16z" fill="#694B4B"/><path d="M346.338 321.524c.398-76.962 8.706-178.977-53.43-206.183-1.084 5.63-3.046 21.348 2.054 31.55 12.843 25.684 25.685 25.684 38.526 44.947 12.842 70.632-24.537 145.6-36.952 155.805 21.996-5.232 37.765-13.51 45.114-17.94 2.898-1.747 4.67-4.797 4.688-8.18z" fill="#785550"/><path d="M353.74 341.004l-57.296-23.873a12.842 12.842 0 0 1-7.902-11.855v-15.517h-64.21v15.517c0 5.184-3.118 9.86-7.903 11.855l-57.296 23.873a19.263 19.263 0 0 0-11.855 17.782v25.684c0 7.092 5.75 12.842 12.842 12.842h192.632c7.092 0 12.842-5.75 12.842-12.842v-25.684a19.26 19.26 0 0 0-11.854-17.782z" fill="#E6AF78"/><path d="M353.74 341.004l-55.398-23.082-41.906 18.086-41.906-18.086-55.397 23.082a19.263 19.263 0 0 0-11.855 17.782v25.684c0 7.092 5.75 12.842 12.842 12.842h192.632c7.092 0 12.842-5.75 12.842-12.842v-25.684a19.26 19.26 0 0 0-11.854-17.782z" fill="#B4E1FA"/><path d="M288.542 289.759h-64.21v15.517c0 5.184-3.118 9.86-7.903 11.855l-8.95 3.73c68.48 17.459 81.063-31.102 81.063-31.102z" fill="#D29B6E"/><g fill="#A0D2F0"><path d="M178.576 365.843l-25.773-20.5c-3.453 3.531-5.523 8.306-5.523 13.442v25.684c0 7.092 5.75 12.842 12.842 12.842h25.684v-16.426a19.27 19.27 0 0 0-7.23-15.042zm187.018 18.627v-25.685c0-5.096-2.035-9.839-5.44-13.362l-25.857 20.42a19.264 19.264 0 0 0-7.23 15.042v16.426h25.685c7.093 0 12.842-5.75 12.842-12.842zm-109.158 0a6.421 6.421 0 0 1-6.42-6.422v-42.026h12.841v42.027a6.42 6.42 0 0 1-6.42 6.42z"/><path d="M256.436 336.008l-36.75-27.564a5.137 5.137 0 0 0-7.357 1.26l-7.261 10.893 22.531 31.543a5.137 5.137 0 0 0 7.39 1.025l21.447-17.157zm0 0l36.751-27.564a5.137 5.137 0 0 1 7.356 1.26l7.262 10.893-22.531 31.543a5.137 5.137 0 0 1-7.39 1.025l-21.448-17.157z"/></g><path d="M288.542 166.153c-32.106 32.105-95.112 6.421-95.112 57.79l3.988 37.839c.768 8.464 5.676 16 13.105 20.126l36.56 20.311a19.263 19.263 0 0 0 18.71 0l36.56-20.31a25.687 25.687 0 0 0 13.104-20.127l4.603-44.94c.328-3.194.397-6.407.289-9.613-2.404-16.345-25.387-28.234-31.807-41.076z" fill="#F0C087"/><path d="M193.43 223.943l3.988 37.839c.768 8.464 5.676 16 13.105 20.126l36.56 20.311c4.037 2.242 8.666 2.824 13.073 1.954 0 0-18.433-5.585-29.402-35.283-3.36-9.097-8.027-57.254-4.014-63.14 7.933-11.634 52.172-12.842 65.243-34.425a35.868 35.868 0 0 1-1.786-2.407c-.045-.065-.097-.13-.14-.195a24.263 24.263 0 0 1-1.514-2.57c-32.107 32.105-95.113 6.421-95.113 57.79z" fill="#E6AF78"/><path d="M307.805 384.47H282.12a6.421 6.421 0 0 0-6.421 6.42v6.421h38.526v-6.42a6.421 6.421 0 0 0-6.421-6.422z" fill="#A0D2F0"/></g></svg>
