<svg width="505" height="505" xmlns="http://www.w3.org/2000/svg"><g fill="none"><circle fill="#33A9DC" cx="252.5" cy="252.5" r="252.5"/><path d="M406.6 96.3l-74.9 39.5 22 12.5-47.5 93-63.4-33-1.1-.6-.4-.2c-4.6-2.1-10.1-.1-12.2 4.5l-48.9 106 60.4-87.4 64.7 40.3c6 3.7 13.8 1.9 17.6-4l.6-.9 62.7-99 24.6 14.1-4.2-84.8z" fill="#F6A623"/><path fill="#FFF" d="M406.6 372.1H130.9V96.3h-15.8v22.8H94.3v15.8h20.8v39.8H94.3v15.7h20.8v39.8H94.3V246h20.8v39.8H94.3v15.8h20.8v39.8H94.3v15.8h20.8v30.6h30.6v20.9h15.8v-20.9h39.8v20.9h15.8v-20.9h39.8v20.9h15.8v-20.9h39.8v20.9h15.8v-20.9h39.8v20.9h15.8v-20.9h22.7z"/></g></svg>
