<svg xmlns="http://www.w3.org/2000/svg" viewBox="0 0 333 47"><g fill="none"><path fill="#24282A" d="M163.748 18.29h7.721v28.294h-7.721z"/><path fill="#6A6E71" d="M153.395 10.564h28.42v7.726h-28.42v-7.726zm117.22 28.294h28.429v7.726h-28.429v-7.726z"/><path fill="#24282A" d="M270.615 10.563h7.725v28.295h-7.725V10.563zm-41.541 7.727h7.726v28.294h-7.726V18.29z"/><path fill="#6A6E71" d="M243.933 10.563h-14.858v7.727h14.858c5.68 0 10.284 4.604 10.284 10.284 0 5.68-4.604 10.285-10.284 10.285H236.8v7.725h7.133c9.946 0 18.01-8.064 18.01-18.01 0-9.946-8.064-18.01-18.01-18.01v-.001z"/><path fill="#9DA0A4" d="M78.624 37.858l3.215-7.725h7.823l3.215 7.725z"/><path fill="#24282A" d="M85.75 20.729l-4.183-10.055-14.938 35.91h8.366z"/><path fill="#6A6E71" d="M89.887 10.563h-8.274l-.046.111 14.94 35.91h8.367L89.887 10.563zm233.935 0l-13.225 23.654.563 1.007v11.36h1.374l20.139-36.021h-8.851z"/><path fill="#9DA0A4" d="M312.534 46.584h6.352v-11.36z"/><path fill="#24282A" d="M315.023 26.302l-3.863-6.909-4.936-8.83h-8.851l13.224 23.654z"/><path fill="#6A6E71" d="M136.918 10.563v23.316l7.725 10.086V10.563z"/><path fill="#9DA0A4" d="M136.918 33.879l-17.855-23.316v12.706l17.855 23.315h7.725v-2.619z"/><path fill="#24282A" d="M111.338 10.563h7.725v36.021h-7.725z"/><path fill="#6A6E71" d="M190.33 10.564h28.429v7.726H190.33z"/><path fill="#9DA0A4" d="M198.056 24.711h18.806v7.726h-18.806z"/><path fill="#24282A" d="M198.056 38.858V18.29h-7.726v28.294h28.429v-7.726z"/><path fill="#00A4BB" d="M69.357.345H58.616L44.808 33.536l-4.631-11.13L49.355.345H38.613l-3.807 9.151L30.999.345h-10.74l9.177 22.06-4.63 11.131L10.997.345H.256l19.238 46.239h10.623l4.69-11.269 4.689 11.269h10.623z"/></g></svg>
