<?xml version="1.0" standalone="no"?>
<!DOCTYPE svg PUBLIC "-//W3C//DTD SVG 20010904//EN"
 "http://www.w3.org/TR/2001/REC-SVG-20010904/DTD/svg10.dtd">
<svg version="1.0" xmlns="http://www.w3.org/2000/svg"
 width="708.000000pt" height="708.000000pt" viewBox="0 0 708.000000 708.000000"
 preserveAspectRatio="xMidYMid meet">
<metadata>
Created by potrace 1.11, written by Peter Selinger 2001-2013
</metadata>
<g transform="translate(0.000000,708.000000) scale(0.100000,-0.100000)"
fill="#000000" stroke="none">
<path d="M421 7053 c1 -66 566 -6343 570 -6347 6 -7 2524 -706 2542 -706 7 -1
585 158 1285 352 1128 312 1273 354 1277 373 2 11 128 1420 280 3130 152 1711
279 3134 282 3163 l6 52 -3122 0 c-2966 0 -3121 -1 -3120 -17z m3424 -897
c117 -20 253 -57 365 -99 127 -48 366 -194 347 -213 -4 -4 -24 0 -44 10 -130
57 -326 97 -477 97 -290 0 -594 -112 -791 -292 l-53 -49 -308 1 c-170 1 -401
5 -514 8 l-205 6 75 76 c107 108 179 137 390 159 58 6 124 20 147 30 23 10 79
54 125 97 111 104 232 166 363 187 67 10 492 -3 580 -18z m375 -317 c178 -32
429 -139 580 -248 243 -174 510 -489 610 -720 179 -413 191 -763 36 -1087 -60
-125 -140 -250 -225 -351 -65 -78 -258 -253 -278 -253 -9 0 -3 21 21 68 74
147 162 437 185 605 27 196 -7 517 -75 724 -37 110 -117 263 -188 357 -76 101
-247 273 -346 348 -241 182 -499 291 -750 318 -52 5 -170 10 -262 10 -101 0
-168 4 -168 10 0 12 100 80 175 117 208 105 460 142 685 102z m-1895 -366 c39
-43 47 -48 87 -48 51 0 92 23 116 66 l17 29 415 0 c397 0 416 -1 448 -20 69
-42 92 -132 53 -208 -26 -51 -111 -129 -169 -155 -33 -15 -74 -22 -139 -25
-60 -3 -93 -8 -93 -16 0 -6 10 -40 22 -76 31 -95 31 -251 0 -342 -49 -142
-148 -253 -287 -320 -100 -48 -168 -57 -420 -58 -436 -1 -554 -21 -646 -106
-25 -24 -51 -44 -57 -44 -22 0 -81 137 -99 226 -14 73 -15 99 -5 166 6 43 20
99 32 124 l20 46 47 -39 c117 -96 175 -117 302 -111 146 7 241 68 241 155 0
51 -20 81 -69 105 -93 46 -373 34 -483 -21 -46 -23 -41 -30 -99 125 -51 136
-53 197 -8 249 23 25 48 40 92 53 51 15 63 22 65 41 6 38 -11 45 -71 27 -70
-20 -67 -21 -67 9 0 40 25 89 65 128 76 74 124 83 443 86 l204 1 43 -47z
m1536 31 c373 -63 750 -319 988 -673 61 -89 136 -252 160 -344 52 -201 64
-551 26 -746 -33 -171 -123 -400 -208 -533 -50 -78 -166 -208 -224 -251 -73
-53 -233 -135 -495 -251 -130 -58 -286 -130 -347 -160 -157 -79 -151 -82 -151
67 0 155 23 257 90 393 58 119 129 215 276 374 179 194 294 364 377 554 60
141 80 240 74 371 -9 199 -64 354 -194 553 -101 153 -174 229 -307 316 -95 63
-149 90 -313 156 -16 7 -23 21 -29 57 -3 26 -13 60 -20 75 -28 55 -24 58 94
58 60 0 151 -7 203 -16z m-228 -273 c160 -55 345 -181 452 -307 79 -93 119
-158 172 -277 59 -134 83 -237 83 -363 0 -268 -126 -512 -451 -875 -282 -315
-374 -527 -367 -849 l2 -135 -63 -40 c-161 -102 -294 -207 -417 -330 -71 -71
-142 -145 -157 -163 -15 -17 -31 -32 -36 -32 -19 0 -114 131 -156 215 -110
224 -122 432 -38 682 72 216 265 498 583 853 134 149 179 210 259 354 115 208
163 380 163 586 0 155 -19 247 -76 365 -33 68 -49 92 -110 169 l-28 36 35 39
c20 22 43 51 52 65 21 31 26 31 98 7z m-226 -206 c136 -162 189 -349 163 -572
-33 -276 -162 -510 -492 -893 -318 -369 -489 -652 -539 -892 -28 -140 -26
-309 6 -433 41 -157 98 -266 206 -398 35 -42 46 -62 40 -75 -4 -9 -22 -48 -40
-86 -45 -94 -64 -200 -56 -303 7 -95 4 -98 -59 -56 -213 143 -498 404 -620
566 -98 131 -201 301 -240 394 -102 241 -141 538 -100 753 17 90 63 227 101
305 132 263 404 507 878 788 163 97 244 157 340 254 98 99 148 176 181 276 24
71 27 97 26 197 -1 63 -3 126 -4 138 -3 21 5 27 77 52 44 15 83 28 87 29 4 0
24 -19 45 -44z"/>
</g>
</svg>
