<svg class="c-logo" viewBox="-305.9 -129 311.7 440"><path fill="#1572B6" d="M-277.5 275.7l-28.4-318.2H5.9l-28.4 318.1-127.7 35.4-127.3-35.3z"/><path fill="#33A9DC" d="M-150 284l103.1-28.6 24.3-271.8H-150V284z"/><path fill="#131313" d="M-61.6-112.7h-25.9l26.9 29.2v13.9H-116v-16.3h26.9l-26.9-29.2V-129h54.4v16.3zm-65.4 0h-25.9l26.9 29.2v13.9h-55.4v-16.3h26.9l-26.9-29.2V-129h54.4v16.3zm-64.7.7h-27.9v25.5h27.9v17h-47.8V-129h47.8v17z"/><path fill="#fff" stroke="#fff" d="M-214.3 25.4c5-4.8 8.3-6.1 19.8-7.2 6.2-.6 7.9-1.4 12.2-5.8 3.9-3.9 6.4-5.7 10.7-7.5 5.4-2.3 9.1-2.8 20.2-2.6 10.7.2 16.8.9 24.2 2.8 9 2.4 13.5 4.1 19.2 7.5 6.2 3.7 11 7.4 7.6 5.8l-1.2-.6c-.3-.2-2.9-1-7.9-2.5-8.5-2.6-17.4-3.1-26-1.4-12.2 2.4-22.2 7.2-30 14.3l-1.9 1.8H-180c-6.9 0-18.3 0-25.3-.1-7.3 0-12.7-.2-12.7-.3 0-.3 2-2.5 3.7-4.2zm-34.2 59.4c.4-3.1 1.2-6.3 2.3-8.4l.4-.7 1.6 1.6c1.5 1.5 4.2 3.5 5.9 4.3.4.2 1.6.7 2.8 1 1.8.6 2.4.7 5.8.7 4.2 0 5.5-.2 8.6-1.7 2.4-1.1 3.5-2.1 4.4-3.7 1.2-2.4.8-5.3-.9-7-1.9-1.9-5.5-2.8-11.4-2.8-7.2 0-12.8 1-15.6 2.7-.6.4-1.2.7-1.3.7-.2 0-.3-.2-1.6-3.6-3.4-8.9-3.4-9-3.4-10.9 0-1.3.1-2.1.5-2.9 1.1-2.4 2.5-3.4 6.1-4.3 2.9-.7 3.3-1.1 3.1-2.9-.1-.7-.2-1.3-.3-1.4-.2-.4-2.9 0-4.5.5-2.6.9-2.4 1-2.2-.5.3-2.5 1-4 2.9-5.8 1.2-1.2 2.2-1.9 3.5-2.6 3.3-1.6 3.9-1.6 17.2-1.6h12l.9 1.4c2 3.2 5.3 4.2 8.7 2.5 1.3-.6 2-1.4 3-3.2l.4-.8 41.2.1 1.3.6c3.3 1.5 4.8 5.6 3.4 9.2-.6 1.4-1 2.1-2.6 4-3.7 4.3-8.6 6.2-14.9 6-3.6-.1-3.7 0-2.8 2.4 3.1 8.2 2.9 15.9-.7 23-2.9 5.8-7.3 9.9-13.5 12.6-4.8 2.1-7 2.3-22.2 2.5-17.8.2-20.1.4-23.9 1.5-3.3 1-5.3 2.2-7.6 4.7-.7.7-1.3 1.4-1.3 1.4-.1 0-.3-.2-.6-.5-.7-.8-2.3-3.9-3-5.7-1.5-3.9-2.1-8.7-1.7-12.4zm60.2 139.4c-.8 1.3-2.1 4-2.7 5.7-.2.4-.6 1.9-.9 3.2-.6 2.3-.7 2.9-.7 7.1 0 2.5.1 4.9.2 5.3.2 1.1-.1 1-2-.2-.8-.6-1.9-1.3-2.4-1.6-2.1-1.4-10.2-7.6-12.1-9.3-5.7-4.9-11.9-11.2-16.3-16.8-3-3.7-9.3-13.3-11-16.6-4.4-8.8-7.3-20.3-7.7-30.4-.4-10.8 3.3-23.2 9.8-32.7 3-4.4 6.5-8.2 12.4-13.6 5.8-5.3 16.5-12.7 25.7-18.1 7.1-4.1 8-4.7 11.2-7 5.1-3.8 9.5-8 12.9-12.6 2.7-3.5 4.9-9.3 5.4-14.3.3-2.7.1-8.2-.4-10.1-.3-1-.3-1.4-.1-1.6.2-.1 1.2-.5 2.3-.7 1.1-.3 2.9-.9 3.9-1.3l1.9-.8 1.7 1.8c3.1 3.4 6 8.4 7.2 12.5 1.1 3.6 1.4 5.7 1.5 9.7.3 10.1-2.8 20.7-9.1 30.7-3.1 5-8.5 12-14.5 18.9-.8.9-2.4 2.8-3.7 4.2-5.3 6.1-13 16.4-15.7 21.3-.4.7-.9 1.6-1.3 2-1.1 1.6-5.1 10-6 12.7-.9 2.5-1.8 6.5-2.4 10.7-.4 2.7-.4 9.7.1 12.4 1.8 10.1 5.4 17.9 11.6 24.9 1.1 1.2 2 2.4 2 2.6 0 .5-.4 1.3-.8 2zm37-38.5c.2 1.6.3 3.1.4 3.3.1.5-.5 1-3.8 2.9-1.9 1.2-4.4 2.8-7.8 5.2-6.1 4.2-16 13.5-19.5 18.2-1 1.3-2 2.4-2.3 2.4-.2 0-1-.8-1.9-1.8-5.4-5.8-9.3-14.7-10.4-23.9-.9-7.3 1.4-17.5 5.8-26.3 4.5-8.9 14-21.7 24.8-33.6 5.9-6.4 8-9 10.6-13 2.2-3.2 5.6-9.6 7-12.8 2.1-4.9 3.9-10.7 4.5-14.7.6-4.3.7-11.2.2-14.2-1.5-9.2-4-14.8-9.3-20.8-.6-.7-1.1-1.4-1.1-1.6 0-.1.4-.6.9-1.1.5-.5 1.5-1.7 2.3-2.7 1.9-2.6 1.8-2.5 2.6-2.4 1.7.4 6 2.1 8.9 3.5 7.5 3.7 13.5 8.7 19.3 16.2 2.6 3.4 6 10.2 8 16.1 2 5.9 2.4 12.2 1.4 18.8-.4 2.3-1.6 6.7-2.2 8-.2.4-.7 1.6-1.2 2.7-1.4 3.4-5.8 10.5-8.9 14.6-3 3.9-7.7 9.4-10.5 12.4-5.5 5.7-10.7 13.2-13.5 19.3-3.5 7.7-5.1 17.2-4.3 25.3zm63.3-32.2c-3.3 4.1-7.3 8.2-9.8 10-2.6 1.9-13.9 7.6-19 9.7-1.1.4-6.4 2.8-9.7 4.3-.8.4-2.4 1.1-3.6 1.6-2 .9-11 5.3-13.8 6.7-1.7.9-2 .9-2.2-.1-.3-1.9-.4-7.9-.2-10.1 1.6-11.9 6.5-21.1 17.6-32.5 7.9-8.1 13.3-15.8 18.2-25.4 3.2-6.3 5.3-13.5 5.4-18.5.1-2.4-.4-7.9-.8-10.2-.9-4.9-3-10.8-5.6-15.5-1.8-3.4-6.1-9.7-8.7-12.8-1.3-1.5-3.3-3.6-4.5-4.6-2.2-1.8-7.1-5.2-10-6.9-2-1.2-7.1-3.4-9.9-4.3-1.2-.4-2.4-.9-2.5-1-.2-.1-.3-.8-.3-1.6 0-1.9-.5-3.8-1.4-5.4-.4-.7-.7-1.4-.6-1.5.3-.3 9.4-.1 12.1.2 9.2 1.2 14.1 2.8 22.9 7.3 14.4 7.4 26.7 19.8 33.7 33.7 2.4 4.8 4.1 9.8 4.9 15 1.9 11.6 2 22.8.4 31.5-.6 3.3-1.7 7.3-3 11.2-1.3 4.1-2.5 6.8-5.2 12.1-.6 1.5-3.5 6-4.4 7.1zm34.5-34.8c-2.7 6.6-7.9 14.9-12.8 20.6-3.4 4-13.7 13.4-13.7 12.5 0-.2.6-1.4 1.3-2.7 2.4-4.5 5.2-11.9 6.5-17.3.3-1.4 1-4 1.5-5.6 1.8-6.6 2.3-12.3 1.8-21.4-.5-9.3-2.6-19.6-5.3-26.2-2-5-5.5-11.2-7.9-14.2-6.8-8.4-11.6-13.2-18.9-18.7-7-5.3-13.8-8.9-21.8-11.7-9-3.1-15.1-3.9-28.1-3.8-4.4 0-7.7 0-7.7-.1-.3-.5 5-4.1 9.1-6 4.3-2 6.3-2.8 11.5-4.1 6.2-1.6 14.4-1.9 21.2-.8 10.6 1.8 22.7 7.1 31.5 13.8 5 3.8 11.8 10.3 15 14.4.8 1 1.9 2.3 2.4 2.9 1.4 1.5 3.8 4.8 5.5 7.3.8 1.2 1.7 2.6 2.1 3.1.8 1.2 2.5 4.5 4 7.9 3.1 7 5.5 15.7 6.5 24.2.9 8.6-.3 17.6-3.7 25.9z"/></svg>
