<svg xmlns="http://www.w3.org/2000/svg" viewBox="0 0 510 552"><defs><linearGradient id="b" x1="50%" x2="50%" y1="0%" y2="100%"><stop stop-color="#34AADC" offset="0%"/><stop stop-color="#007AFF" offset="100%"/></linearGradient><filter id="a" width="200%" height="200%" x="-50%" y="-50%"><feOffset dy="5" in="SourceAlpha" result="offset"/><feGaussianBlur stdDeviation="2.5" in="offset" result="blur"/><feColorMatrix values="0 0 0 0 0 0 0 0 0 0 0 0 0 0 0 0 0 0 0.07 0" in="blur" result="matrix"/><feMerge><feMergeNode in="matrix"/><feMergeNode in="SourceGraphic"/></feMerge></filter></defs><path fill="#FF9D00" d="M477.86 306.928c34.186 26.66 34.186 70.518 0 97.393L317.016 530.738c-34.185 26.66-89.845 26.66-124.03 0L32.14 404.537c-34.186-26.66-34.186-70.52 0-97.394l160.845-126.417c34.185-26.66 89.845-26.66 124.03 0L477.86 306.928z"/><path fill="rgba(0, 0, 0, 0.1)" d="M193.37 451.832L31.812 324.86C15.524 312.098 6.5 295.01 6.5 276.84s9.024-35.258 25.312-48.02L193.37 101.632c16.288-12.762 38.3-19.9 61.63-19.9 23.33 0 45.122 7.138 61.63 19.9l161.558 126.972c16.288 12.762 25.312 29.85 25.312 48.02s-9.024 35.258-25.312 48.02L316.63 451.614c-16.508 12.98-38.3 20.118-61.63 20.118-23.33 0-45.122-7.138-61.63-19.9z" filter="url(#a)"/><path fill="#FC0" d="M193.37 451.832L31.812 324.86C15.524 312.098 6.5 295.01 6.5 276.84s9.024-35.258 25.312-48.02L193.37 101.632c16.288-12.762 38.3-19.9 61.63-19.9 23.33 0 45.122 7.138 61.63 19.9l161.558 126.972c16.288 12.762 25.312 29.85 25.312 48.02s-9.024 35.258-25.312 48.02L316.63 451.614c-16.508 12.98-38.3 20.118-61.63 20.118-23.33 0-45.122-7.138-61.63-19.9z"/><path fill="rgba(0, 0, 0, 0.1)" d="M193.37 371.832L31.812 244.86C15.524 232.098 6.5 215.01 6.5 196.84s9.024-35.258 25.312-48.02L193.37 21.632c16.288-12.762 38.3-19.9 61.63-19.9 23.33 0 45.122 7.138 61.63 19.9l161.558 126.972c16.288 12.762 25.312 29.85 25.312 48.02s-9.024 35.258-25.312 48.02L316.63 371.614c-16.508 12.98-38.3 20.118-61.63 20.118-23.33 0-45.122-7.138-61.63-19.9z" filter="url(#a)"/><path fill="url(#b)" d="M193.37 371.832L31.812 244.86C15.524 232.098 6.5 215.01 6.5 196.84s9.024-35.258 25.312-48.02L193.37 21.632c16.288-12.762 38.3-19.9 61.63-19.9 23.33 0 45.122 7.138 61.63 19.9l161.558 126.972c16.288 12.762 25.312 29.85 25.312 48.02s-9.024 35.258-25.312 48.02L316.63 371.614c-16.508 12.98-38.3 20.118-61.63 20.118-23.33 0-45.122-7.138-61.63-19.9z"/><path fill="#fff" d="M255.558 318.523c82.555 0 149.48-54.705 149.48-122.187S338.113 74.148 255.558 74.148c-82.556 0-149.48 54.706-149.48 122.188s66.924 122.187 149.48 122.187zm0 12.58c-91.054 0-164.868-60.338-164.868-134.767 0-74.43 73.814-134.766 164.868-134.766s164.867 60.337 164.867 134.766c0 74.43-73.813 134.766-164.867 134.766z"/><path fill="#8CC8F6" d="M266.576 248.2c8.263-1.083 16.318-3.387 23.69-6.91l47.055 19.34-24.646-36.924c12.965-16.7 12.965-37.855 0-54.557l24.647-36.925-44.345 18.23-1.275 19.498c18.13 15.204 17.666 39.216-1.172 53.894-4.807 3.845-10.326 6.543-16.123 8.46l-7.83 15.892zM244.58 144.623c-13.65 1.775-23.88 6.942-23.88 6.942l-47.01-19.34 24.648 36.923c-12.965 16.7-12.965 37.855 0 54.556L173.69 260.63l45.56-18.727.97-18.262c-19.058-15.16-18.906-39.412.31-54.638 4.47-4.002 14.576-8.24 16.092-8.465l7.958-15.913z"/><path fill="#fff" fill-rule="evenodd" d="M232.944 192.305l-6.26 110.997 50.705-102.943 7.26-110.79-51.706 102.735zm-.655 89.664l40.614-82.407-35.59-6.494-5.025 88.9z"/></svg>
