<svg xmlns="http://www.w3.org/2000/svg" id="Layer_1" viewBox="0 0 93 91"><style>.st0 { fill: #F89D1C; } .st1 { fill: #DC4E3D; } .st2 { fill: #D02D27; } .st3 { fill: #694D9F; } .st4 { fill: #57142A; } .st5 { fill: #2FB4C5; } .st6 { fill: #253B82; } .st7 { fill: #FFFFFF; }</style><g transform="translate(-4)"><path d="M17 0c6.6 0 12 5.4 12 12v66c0 6.6-5.4 12-12 12S5 84.6 5 78V12C5 5.4 10.4 0 17 0z" class="st0"/><path d="M59 36.5c4.7 4.7 4.7 12.3 0 17L25.5 87c-4.7 4.7-12.3 4.7-17 0-4.7-4.7-4.7-12.3 0-17l33.6-33.6c4.6-4.6 12.2-4.6 16.9.1z" class="st1"/><path d="M29 49.5V78c0 6.6-5.4 12-12 12S5 84.6 5 78v-.3c.2-2.8 1.4-5.5 3.5-7.6L29 49.5z" class="st2"/><path d="M42.5 36.5c-4.7 4.7-4.7 12.3 0 17L76.1 87c4.7 4.7 12.3 4.7 17 0 4.7-4.7 4.7-12.3 0-17L59.5 36.5c-4.7-4.7-12.3-4.7-17 0z" class="st3"/><path d="M50.8 33c3 .1 6 1.2 8.3 3.5 4.7 4.7 4.7 12.3 0 17l-8.3 8.3-8.3-8.3c-4.7-4.7-4.7-12.3 0-17 2.3-2.3 5.3-3.5 8.3-3.5z" class="st4"/><path d="M84.5 0c6.6 0 12 5.4 12 12v66c0 6.6-5.4 12-12 12s-12-5.4-12-12V12c0-6.6 5.4-12 12-12z" class="st5"/><path d="M72.5 49.5L93 70.1c2.1 2.1 3.3 4.9 3.5 7.6v1.8c-.2 2.7-1.4 5.4-3.5 7.5-4.7 4.7-12.3 4.7-17 0l-1.8-1.8c-1.1-1.8-1.7-3.9-1.7-6.2V49.5z" class="st6"/><circle id="Oval" cx="17" cy="12" r="5" class="st7"/><circle id="Oval_1_" cx="17" cy="78" r="5" class="st7"/><circle id="Oval_2_" cx="51" cy="45" r="5" class="st7"/><circle id="Oval_3_" cx="84" cy="12" r="5" class="st7"/><circle id="Oval_4_" cx="84" cy="78" r="5" class="st7"/></g></svg>
